<svg width="22" height="16" viewBox="0 0 22 16" fill="none" xmlns="http://www.w3.org/2000/svg">
<g clip-path="url(#clip0_12645_53738)">
<rect x="0.88916" y="0.5" width="21" height="15" rx="1.06205" fill="#007DAC"/>
<rect x="0.88916" y="0.5" width="20.475" height="15" rx="1.06205" fill="#D8F0FB"/>
<path d="M0.88916 0.5L14.5848 0.5L13.7163 0.977188C13.1257 1.3017 12.7587 1.9221 12.7587 2.59598V3.42074C12.7587 4.09463 12.3917 4.71503 11.8011 5.03954L10.9326 5.51672L0.88916 5.51672L0.88916 0.5Z" fill="#02C2F2"/>
<path d="M0.888428 5.5166L14.5841 5.5166L13.7156 5.99379C13.125 6.3183 12.758 6.9387 12.758 7.61258V8.43735C12.758 9.11123 12.391 9.73163 11.8004 10.0561L10.9319 10.5333H0.888428L0.888428 5.5166Z" fill="#02C2F2"/>
<path d="M0.889404 10.5332L14.5851 10.5332L13.7166 11.0104C13.126 11.3349 12.759 11.9553 12.759 12.6292V13.4539C12.759 14.1278 12.392 14.7482 11.8014 15.0727L10.9329 15.5499H0.889404L0.889404 10.5332Z" fill="#02C2F2"/>
</g>
<rect x="14.5386" y="1.6543" width="5.25" height="1.15385" rx="0.576923" fill="#02C2F2"/>
<rect x="14.5383" y="3.38477" width="3.15" height="1.15385" rx="0.576923" fill="#02C2F2"/>
<rect x="14.5386" y="6.84668" width="5.25" height="1.15385" rx="0.576923" fill="#02C2F2"/>
<rect x="14.5388" y="8.57812" width="3.15" height="1.15385" rx="0.576923" fill="#02C2F2"/>
<rect x="14.5391" y="12.0381" width="5.25" height="1.15385" rx="0.576923" fill="#02C2F2"/>
<rect x="14.5393" y="13.7695" width="3.15" height="1.15385" rx="0.576923" fill="#02C2F2"/>
<rect x="2.98926" y="2.80762" width="5.25" height="1.15385" rx="0.576923" fill="#D8F0FB"/>
<rect x="2.98926" y="7.42285" width="5.25" height="1.15385" rx="0.576923" fill="#D8F0FB"/>
<rect x="2.98926" y="12.0381" width="5.25" height="1.15385" rx="0.576923" fill="#D8F0FB"/>
<defs>
<clipPath id="clip0_12645_53738">
<rect x="0.88916" y="0.5" width="21" height="15" rx="1.06205" fill="white"/>
</clipPath>
</defs>
</svg>
